<svg width="29" height="16" viewBox="0 0 29 16" fill="none" xmlns="http://www.w3.org/2000/svg">
<path d="M20.0001 1.00002C19.9063 1.09298 19.8319 1.20359 19.7812 1.32545C19.7304 1.4473 19.7043 1.57801 19.7043 1.71002C19.7043 1.84203 19.7304 1.97274 19.7812 2.0946C19.8319 2.21646 19.9063 2.32706 20.0001 2.42002L24.6001 7.02002H1.06006C0.794842 7.02002 0.540488 7.12538 0.352952 7.31291C0.165415 7.50045 0.0600586 7.75481 0.0600586 8.02002C0.0600586 8.28524 0.165415 8.53959 0.352952 8.72713C0.540488 8.91466 0.794842 9.02002 1.06006 9.02002H24.5801L20.0001 13.59C19.8138 13.7774 19.7093 14.0308 19.7093 14.295C19.7093 14.5592 19.8138 14.8127 20.0001 15C20.1874 15.1863 20.4409 15.2908 20.7051 15.2908C20.9692 15.2908 21.2227 15.1863 21.4101 15L27.7701 8.64002C27.8557 8.55789 27.9238 8.4593 27.9703 8.35018C28.0168 8.24106 28.0408 8.12365 28.0408 8.00502C28.0408 7.88639 28.0168 7.76899 27.9703 7.65986C27.9238 7.55074 27.8557 7.45215 27.7701 7.37002L21.4201 1.00002C21.3271 0.906294 21.2165 0.831899 21.0946 0.781131C20.9728 0.730362 20.8421 0.704224 20.7101 0.704224C20.578 0.704224 20.4473 0.730362 20.3255 0.781131C20.2036 0.831899 20.093 0.906294 20.0001 1.00002Z" fill="white"/>
</svg>
