<svg width="30" height="19" viewBox="0 0 30 19" fill="none" xmlns="http://www.w3.org/2000/svg">
<path fill-rule="evenodd" clip-rule="evenodd" d="M19.7698 0.325437C20.2037 -0.108479 20.9072 -0.108479 21.3411 0.325437L29.6745 8.65877C30.1084 9.09268 30.1084 9.7962 29.6745 10.2301L21.3411 18.5634C20.9072 18.9974 20.2037 18.9974 19.7698 18.5634C19.3359 18.1295 19.3359 17.426 19.7698 16.9921L27.3174 9.44444L19.7698 1.89678C19.3359 1.46287 19.3359 0.759353 19.7698 0.325437Z" fill="white"/>
<path fill-rule="evenodd" clip-rule="evenodd" d="M10.2301 0.325437C10.664 0.759353 10.664 1.46287 10.2301 1.89678L2.68246 9.44444L10.2301 16.9921C10.664 17.426 10.664 18.1295 10.2301 18.5634C9.7962 18.9974 9.09268 18.9974 8.65877 18.5634L0.325437 10.2301C-0.108479 9.7962 -0.108479 9.09268 0.325437 8.65877L8.65877 0.325437C9.09268 -0.108479 9.7962 -0.108479 10.2301 0.325437Z" fill="white"/>
</svg>
