<svg width="30" height="30" viewBox="0 0 30 30" fill="none" xmlns="http://www.w3.org/2000/svg">
<path d="M26.25 13.4625V7.5C26.25 5.7875 22.6875 5 19.375 5C18.3282 4.99595 17.2829 5.07958 16.25 5.25V5C16.25 3.2875 12.6875 2.5 9.375 2.5C6.0625 2.5 2.5 3.2875 2.5 5V23.75C2.5 25.4625 6.0625 26.25 9.375 26.25C10.5623 26.2521 11.747 26.139 12.9125 25.9125C14.6682 27.0956 16.773 27.6487 18.8835 27.4816C20.994 27.3145 22.9855 26.437 24.5331 24.9924C26.0807 23.5477 27.093 21.6212 27.4049 19.5272C27.7167 17.4332 27.3096 15.2954 26.25 13.4625ZM22.3625 9.775C23.2749 9.65456 24.1641 9.39751 25 9.0125V11.775C24.2455 10.9582 23.3526 10.2811 22.3625 9.775ZM9.375 7.5C11.2986 7.57077 13.2155 7.23425 15 6.5125V8.75C14.9 9.1 13.025 10 9.375 10C5.725 10 3.85 9.0875 3.75 8.75V6.5125C5.5345 7.23425 7.45137 7.57077 9.375 7.5ZM9.3 15C8.99352 15.8014 8.80815 16.644 8.75 17.5C5.5 17.4 3.8125 16.5875 3.75 16.25V14.0125C5.51195 14.7214 7.40165 15.0577 9.3 15ZM3.75 20V17.7625C5.33342 18.4242 7.03392 18.76 8.75 18.75C8.80996 19.6034 8.9866 20.4446 9.275 21.25C5.7 21.25 3.85 20.3375 3.75 20ZM9.85 13.75H9.375C5.725 13.75 3.85 12.8375 3.75 12.5V10.2625C5.5345 10.9842 7.45137 11.3208 9.375 11.25C10.236 11.2531 11.0962 11.1988 11.95 11.0875C11.0946 11.8405 10.383 12.7427 9.85 13.75ZM19.375 6.25C23.0375 6.25 24.9125 7.1625 25 7.5C25.0875 7.8375 23.0375 8.75 19.375 8.75C18.3277 8.75239 17.2822 8.66456 16.25 8.4875V6.5125C17.2822 6.33544 18.3277 6.24761 19.375 6.25ZM9.375 3.75C13 3.75 14.875 4.65 15 5C14.875 5.3375 13.125 6.175 9.7625 6.25H9.375C5.725 6.25 3.85 5.3375 3.75 5C3.85 4.6625 5.725 3.75 9.375 3.75ZM9.375 25C5.725 25 3.85 24.0875 3.75 23.75V21.5125C5.5345 22.2342 7.45137 22.5708 9.375 22.5H9.8375C10.3006 23.3764 10.8997 24.1738 11.6125 24.8625C10.8702 24.9539 10.1229 24.9998 9.375 25ZM18.125 26.25C16.518 26.25 14.9471 25.7735 13.611 24.8807C12.2748 23.9879 11.2334 22.719 10.6185 21.2343C10.0035 19.7497 9.84262 18.116 10.1561 16.5399C10.4696 14.9638 11.2435 13.5161 12.3798 12.3798C13.5161 11.2435 14.9638 10.4696 16.5399 10.1561C18.116 9.84261 19.7497 10.0035 21.2343 10.6185C22.719 11.2334 23.9879 12.2748 24.8807 13.611C25.7735 14.9471 26.25 16.518 26.25 18.125C26.2467 20.2789 25.3896 22.3436 23.8666 23.8666C22.3436 25.3896 20.2789 26.2467 18.125 26.25Z" fill="#F8C844"/>
<path d="M18.7502 17.5V14.625C19.0389 14.6773 19.3079 14.8073 19.5281 15.0012C19.7484 15.195 19.9116 15.4453 20.0002 15.725C20.04 15.8908 20.144 16.0339 20.2893 16.123C20.4346 16.2121 20.6094 16.2398 20.7752 16.2C20.9409 16.1602 21.0841 16.0562 21.1732 15.9109C21.2623 15.7655 21.29 15.5908 21.2502 15.425C21.0714 14.8833 20.7408 14.4044 20.2975 14.0454C19.8543 13.6864 19.3172 13.4623 18.7502 13.4V13.125C18.7502 12.9592 18.6843 12.8003 18.5671 12.6831C18.4499 12.5658 18.2909 12.5 18.1252 12.5C17.9594 12.5 17.8004 12.5658 17.6832 12.6831C17.566 12.8003 17.5002 12.9592 17.5002 13.125V13.3875C16.8387 13.4656 16.2258 13.7738 15.7687 14.2583C15.3117 14.7428 15.0396 15.3726 15.0002 16.0375C15.0017 16.2308 15.0226 16.4234 15.0627 16.6125C15.2201 17.1656 15.5339 17.6615 15.9663 18.0406C16.3986 18.4198 16.9313 18.6661 17.5002 18.75V21.6375C17.2115 21.5852 16.9425 21.4552 16.7222 21.2613C16.5019 21.0675 16.3387 20.8172 16.2502 20.5375C16.2104 20.3717 16.1064 20.2286 15.961 20.1395C15.8157 20.0504 15.6409 20.0227 15.4752 20.0625C15.3094 20.1023 15.1662 20.2063 15.0772 20.3516C14.9881 20.497 14.9604 20.6717 15.0002 20.8375C15.1782 21.3785 15.5089 21.8564 15.9525 22.2135C16.3962 22.5706 16.9337 22.7917 17.5002 22.85V23.125C17.5002 23.2908 17.566 23.4497 17.6832 23.5669C17.8004 23.6842 17.9594 23.75 18.1252 23.75C18.2909 23.75 18.4499 23.6842 18.5671 23.5669C18.6843 23.4497 18.7502 23.2908 18.7502 23.125V22.85C19.3258 22.7859 19.8698 22.5537 20.3144 22.1825C20.7589 21.8113 21.0844 21.3174 21.2502 20.7625C21.2888 20.5816 21.3097 20.3974 21.3127 20.2125C21.283 19.5278 21.0077 18.8767 20.5371 18.3786C20.0664 17.8804 19.4321 17.5685 18.7502 17.5ZM16.2502 16.25C16.2372 16.1588 16.2372 16.0662 16.2502 15.975C16.2825 15.643 16.422 15.3306 16.6475 15.0848C16.8729 14.8391 17.1722 14.6733 17.5002 14.6125V17.35C17.2191 17.3019 16.9556 17.1808 16.7362 16.9987C16.5168 16.8165 16.3492 16.5799 16.2502 16.3125V16.25ZM20.0002 20.475C19.9116 20.7547 19.7484 21.005 19.5281 21.1988C19.3079 21.3927 19.0389 21.5227 18.7502 21.575V18.8375C19.08 18.8989 19.3807 19.0665 19.6064 19.3148C19.8321 19.563 19.9704 19.8783 20.0002 20.2125C20.0114 20.2996 20.0114 20.3879 20.0002 20.475Z" fill="#F8C844"/>
</svg>
