<svg width="150" height="47" viewBox="0 0 150 47" fill="none" xmlns="http://www.w3.org/2000/svg">
<g clip-path="url(#clip0_189:2)">
<path d="M133.248 10.4033L129.294 0L136.309 7.36046L137.712 4.93438L139.711 8.05949L150 2.83727L142.729 10.8968L146.131 11.9659L142.644 13.6929L147.109 18.6273L139.923 15.8723L139.881 10.4033H133.248Z" fill="white"/>
<path d="M48.0013 27.1391H45.918V35.4453H48.0013C49.617 35.4453 50.935 34.1706 50.935 32.608V29.9353C50.935 28.4138 49.617 27.1391 48.0013 27.1391Z" fill="white"/>
<path d="M50.6799 21.3001V18.5862C50.6799 17.4348 49.702 16.4891 48.5115 16.4891H45.918V23.3561H48.554C49.702 23.3972 50.6799 22.4515 50.6799 21.3001Z" fill="white"/>
<path d="M0 8.30621V43.6282H59.2262V8.30621H0ZM21.9388 39.6807H16.1565L14.4558 26.7279L12.7551 39.6807H6.63265L3.44388 12.2948H7.95068L10.034 31.3333L12.1173 12.2948H16.7517L18.7925 31.7034L21.0884 12.2948H25.3827L21.9388 39.6807ZM39.0306 16.4068H31.0799V23.9729H37.5425V27.797H31.0799V35.5687H39.0306V39.7218H27.0408V12.2948H39.0306V16.4068ZM55.6122 33.5949C55.6122 36.9668 52.8061 39.6807 49.3197 39.6807H41.8792V12.2948H49.7024C52.6361 12.2948 54.9745 14.5976 54.9745 17.3937V21.3001C54.9745 23.4383 53.1888 25.1242 51.0204 25.1242C53.5714 25.1242 55.6122 27.098 55.6122 29.5652V33.5949Z" fill="white"/>
<path d="M68.2403 11.678H64.2012V38.6938H68.2403V11.678Z" fill="white"/>
<path d="M76.2335 11.678H79.6774C82.2709 11.678 84.3542 13.6929 84.3542 16.2012V21.0945H80.3576V17.4348C80.3576 16.1601 79.2947 15.1321 77.9767 15.1321C76.6587 15.1321 75.5957 16.1601 75.5957 17.4348V33.1015C75.5957 34.3762 76.6587 35.4042 77.9767 35.4042C79.2947 35.4042 80.3576 34.3762 80.3576 33.1015V27.4269H77.9767V23.6028H84.3968V34.1295C84.3968 36.6378 82.3134 38.6527 79.7199 38.6527H76.276C73.6825 38.6527 71.5991 36.6378 71.5991 34.1295V16.2012C71.5141 13.6929 73.64 11.678 76.2335 11.678Z" fill="white"/>
<path d="M87.2451 38.6938V11.678H92.6873L97.024 27.0569V11.678H101.063V38.6938H97.024L91.2842 20.1898V38.6938H87.2451Z" fill="white"/>
<path d="M108.674 11.678H104.635V38.6938H108.674V11.678Z" fill="white"/>
<path d="M110.502 11.678V15.5022H115.434V38.6938H119.473V15.5022H124.533V11.678H110.502Z" fill="white"/>
<path d="M126.531 11.678H138.394V15.5022H130.57V23.2327H136.65V26.9746H130.57V34.9108H138.394V38.6938H126.531V11.678Z" fill="white"/>
<path d="M63.1374 46.9178L61.7344 41.2432H63.0099C63.3075 42.6413 63.6476 44.5328 63.8177 45.6019C64.0303 44.5328 64.5405 42.6002 64.8806 41.2432H65.9436C66.2412 42.3535 66.7514 44.4917 66.964 45.5608C67.134 44.2861 67.6868 42.1479 67.8568 41.2432H69.0473L67.5592 46.9178H66.3262C66.0286 45.643 65.5609 43.8749 65.3908 42.8469C65.1783 43.8749 64.7106 45.7664 64.413 46.9178H63.1374Z" fill="white"/>
<path d="M73.5115 44.4506H70.9605V45.972H73.7666L73.639 46.9178H69.8125V41.2432H73.639V42.189H70.9605V43.4637H73.5115V44.4506Z" fill="white"/>
<path d="M74.6172 41.2432H76.9131C78.1886 41.2432 78.7839 41.9011 78.7839 42.6824C78.7839 43.3815 78.3587 43.7104 78.0611 43.8338C78.4862 43.9983 78.9964 44.4095 78.9964 45.1907C78.9964 46.301 78.1461 46.9178 76.9131 46.9178H74.6597V41.2432H74.6172ZM76.7005 43.4637C77.3383 43.4637 77.5934 43.2581 77.5934 42.8058C77.5934 42.3535 77.2532 42.1067 76.743 42.1067H75.7651V43.4637H76.7005ZM75.8077 46.0542H76.7856C77.3383 46.0542 77.7634 45.8075 77.7634 45.2318C77.7634 44.6973 77.4233 44.3683 76.7005 44.3683H75.8077V46.0542Z" fill="white"/>
<path d="M82.0576 41.2432H84.0984C85.8841 41.2432 86.862 42.3123 86.862 43.9571C86.862 45.8075 85.8416 46.9178 84.0559 46.9178H82.0576V41.2432ZM83.2481 46.0131H84.0134C85.0338 46.0131 85.5865 45.273 85.5865 43.9983C85.5865 42.9291 85.0763 42.189 84.0134 42.189H83.2481V46.0131Z" fill="white"/>
<path d="M91.6668 44.4506H89.1157V45.972H91.9219L91.7943 46.9178H87.9678V41.2432H91.7943V42.189H89.1157V43.4637H91.6668V44.4506Z" fill="white"/>
<path d="M94.2599 46.9178L92.3467 41.2432H93.6222L94.3875 43.8338C94.6001 44.5739 94.8127 45.3141 94.9402 45.8486C95.0678 45.3552 95.2804 44.5739 95.5355 43.8749L96.3858 41.2432H97.6188L95.663 46.9178H94.2599Z" fill="white"/>
<path d="M102.041 44.4506H99.4898V45.972H102.296L102.168 46.9178H98.3418V41.2432H102.168V42.189H99.4898V43.4637H102.041V44.4506Z" fill="white"/>
<path d="M103.146 41.2432H104.337V45.972H106.973L106.845 46.9178H103.146V41.2432Z" fill="white"/>
<path d="M112.585 44.0394C112.585 45.6842 111.777 47 109.906 47C108.078 47 107.312 45.643 107.312 44.0394C107.312 42.6413 108.12 41.161 109.991 41.161C111.777 41.161 112.585 42.5179 112.585 44.0394ZM108.545 44.0394C108.545 45.1907 109.013 46.0954 109.949 46.0954C110.969 46.0954 111.352 45.273 111.352 44.0805C111.352 43.0525 110.969 42.1067 109.949 42.1067C108.971 42.1067 108.545 42.9703 108.545 44.0394Z" fill="white"/>
<path d="M113.605 41.2432H115.774C116.879 41.2432 117.857 41.7778 117.857 42.9291C117.857 44.1216 116.964 44.7384 115.689 44.7384H114.838V46.9178H113.648V41.2432H113.605ZM114.838 43.8338H115.646C116.284 43.8338 116.667 43.5871 116.667 42.9703C116.667 42.3946 116.242 42.1479 115.646 42.1479H114.838V43.8338Z" fill="white"/>
<path d="M123.512 44.8207C123.512 43.8338 123.512 42.6824 123.554 42.0656H123.512C123.257 43.2581 122.661 45.3552 122.151 46.9589H121.131C120.748 45.6019 120.153 43.217 119.898 42.0656H119.855C119.898 42.7235 119.94 43.9571 119.94 44.944V46.9589H118.835V41.2843H120.621C121.046 42.6002 121.556 44.6151 121.726 45.4786C121.854 44.7384 122.534 42.6413 122.959 41.2843H124.702V46.9589H123.554V44.8207H123.512Z" fill="white"/>
<path d="M129.719 44.4506H127.168V45.972H129.975L129.847 46.9178H126.021V41.2432H129.847V42.189H127.126V43.4637H129.677V44.4506H129.719Z" fill="white"/>
<path d="M130.824 46.9178V41.2432H132.355C134.098 44.6973 134.396 45.273 134.481 45.5197C134.438 44.8618 134.396 43.916 134.396 42.9703V41.2021H135.501V46.8766H134.013C132.142 43.0525 131.93 42.6002 131.845 42.3946C131.887 43.0936 131.887 44.0805 131.887 45.1085V46.8766H130.824V46.9178Z" fill="white"/>
<path d="M137.925 42.189H136.352V41.2432H140.731V42.189H139.115V46.9178H137.925V42.189Z" fill="white"/>
</g>
<defs>
<clipPath id="clip0_189:2">
<rect width="150" height="47" fill="white"/>
</clipPath>
</defs>
</svg>
