<svg width="31" height="30" viewBox="0 0 31 30" fill="none" xmlns="http://www.w3.org/2000/svg">
<path fill-rule="evenodd" clip-rule="evenodd" d="M20.7292 0.584509C21.5086 -0.194836 22.7667 -0.194836 23.5461 0.584509L29.4152 6.45376C29.7975 6.83605 30.0111 7.35668 30.0238 7.87165C30.0364 8.37774 29.8515 8.92685 29.3823 9.30359C24.6847 14.0011 22.3788 16.2985 20.0605 18.608L19.9873 18.681L19.9608 18.7073C17.6215 21.0378 15.2942 23.3565 10.3893 28.2614C10.2787 28.372 10.1363 28.4453 9.98199 28.471L0.874096 29.9898C0.635667 30.0295 0.392682 29.952 0.221298 29.7816C0.0499142 29.6111 -0.0288932 29.3685 0.00957591 29.1299C0.254764 27.6089 0.503132 26.0848 0.751379 24.5615L0.752021 24.5575C1.00052 23.0326 1.24889 21.5085 1.49404 19.9877C1.51919 19.8316 1.59294 19.6875 1.70479 19.5759L20.7292 0.584509ZM28.8845 8.73985L28.4354 8.13838C28.4812 8.10416 28.5263 8.03884 28.523 7.90885C28.5196 7.77056 28.4576 7.61923 28.3537 7.51531L22.4845 1.64606C22.4845 1.64606 22.4845 1.64606 22.4845 1.64606C22.2915 1.45298 21.9839 1.45298 21.7908 1.64606L2.93744 20.4666C2.70464 21.9092 2.46913 23.3544 2.23372 24.799L2.23315 24.8025C2.04102 25.9815 1.84896 27.1601 1.6584 28.337L9.49782 27.0298C14.2869 22.2408 16.5881 19.9483 18.9002 17.6448L18.9277 17.6174L19.001 17.5445C21.3242 15.2299 23.6349 12.928 28.3537 8.20908L28.8845 8.73985Z" fill="white"/>
<path d="M25.9438 11.6839L26.0473 11.5804C26.3691 11.2586 26.3691 10.737 26.0473 10.4152L19.4969 3.86476C19.1752 3.54302 18.6536 3.54302 18.3318 3.86476L18.2283 3.96832C17.9065 4.29006 17.9065 4.8117 18.2283 5.13343L24.7787 11.6839C25.1004 12.0057 25.622 12.0057 25.9438 11.6839Z" fill="white"/>
<path d="M6.19333 29.1158L0.957332 23.8798L0.750488 29.2494L6.19333 29.1158Z" fill="white"/>
<path d="M10.5678 26.963L10.6714 26.8594C10.9931 26.5377 10.9931 26.016 10.6714 25.6943L4.12093 19.1438C3.7992 18.8221 3.27757 18.8221 2.95584 19.1438L2.85227 19.2474C2.53054 19.5691 2.53054 20.0908 2.85227 20.4125L9.4027 26.963C9.72443 27.2847 10.2461 27.2847 10.5678 26.963Z" fill="white"/>
</svg>
