<svg width="30" height="30" viewBox="0 0 30 30" fill="none" xmlns="http://www.w3.org/2000/svg">
<path d="M15 1.12676C16.8734 1.12676 18.6901 1.49345 20.3998 2.21655C22.0516 2.91521 23.5354 3.9157 24.8099 5.19014C26.0844 6.46465 27.0848 7.94838 27.7835 9.60028C28.5066 11.3099 28.8732 13.1266 28.8732 15C28.8732 16.8734 28.5066 18.6901 27.7835 20.3998C27.0847 22.0516 26.0843 23.5354 24.8098 24.8099C23.5354 26.0844 22.0515 27.0848 20.3997 27.7835C18.6901 28.5066 16.8734 28.8732 15 28.8732C13.1266 28.8732 11.3099 28.5066 9.60028 27.7835C7.94838 27.0847 6.46465 26.0843 5.19014 24.8098C3.9157 23.5354 2.91521 22.0515 2.21655 20.3997C1.49345 18.6901 1.12676 16.8734 1.12676 15C1.12676 13.1266 1.49345 11.3099 2.21655 9.60028C2.91521 7.94838 3.9157 6.46465 5.19014 5.19014C6.46465 3.9157 7.94838 2.91521 9.60028 2.21655C11.3099 1.49345 13.1266 1.12676 15 1.12676ZM15 0C6.7157 0 0 6.7157 0 15C0 23.2843 6.7157 30 15 30C23.2843 30 30 23.2843 30 15C30 6.7157 23.2843 0 15 0Z" fill="white"/>
<path d="M11.8309 21.6901C11.7428 21.6901 11.6543 21.6695 11.5729 21.6276C11.3854 21.531 11.2676 21.3377 11.2676 21.1268V8.87325C11.2676 8.66226 11.3854 8.46902 11.5729 8.3724C11.7605 8.27571 11.9862 8.29205 12.1581 8.41451L20.7496 14.5413C20.8979 14.647 20.9859 14.8179 20.9859 15C20.9859 15.1821 20.8979 15.353 20.7496 15.4587L12.1581 21.5855C12.0607 21.6549 11.9461 21.6901 11.8309 21.6901ZM12.3943 9.96698V20.0331L19.4522 15L12.3943 9.96698Z" fill="white"/>
</svg>
