<svg width="26" height="26" viewBox="0 0 26 26" fill="none" xmlns="http://www.w3.org/2000/svg">
<path d="M18.8685 7.13176C18.455 6.71826 17.9053 6.4906 17.3207 6.4906C16.7361 6.4906 16.1864 6.71826 15.7729 7.13176C15.3595 7.54516 15.1318 8.09487 15.1318 8.67944C15.1318 9.26412 15.3595 9.81382 15.7729 10.2273C16.1864 10.6407 16.736 10.8683 17.3205 10.8684C17.3207 10.8684 17.3207 10.8684 17.3207 10.8684C17.9053 10.8684 18.455 10.6407 18.8685 10.2273C19.2819 9.81376 19.5096 9.26409 19.5096 8.67944C19.5095 8.09487 19.2818 7.54519 18.8685 7.13176ZM17.9978 9.35658C17.8169 9.53754 17.5766 9.63725 17.3206 9.63725C17.0648 9.63719 16.8243 9.53754 16.6435 9.35658C16.4626 9.17581 16.363 8.93538 16.363 8.67948C16.363 8.42377 16.4626 8.18323 16.6435 8.00237C16.8243 7.82151 17.065 7.7219 17.3206 7.7219C17.5764 7.7219 17.8169 7.82144 17.9978 8.00237C18.3712 8.37573 18.3712 8.98322 17.9978 9.35658Z" fill="#F8C844"/>
<path d="M2.02426 20.3846C1.86673 20.3846 1.70924 20.3245 1.58902 20.2043C1.34858 19.9639 1.34858 19.574 1.58902 19.3337L5.14874 15.7739C5.38918 15.5335 5.77898 15.5335 6.01942 15.7739C6.25985 16.0143 6.25985 16.4042 6.01942 16.6446L2.45956 20.2043C2.33938 20.3245 2.18185 20.3846 2.02426 20.3846Z" fill="#F8C844"/>
<path d="M2.82025 23.7956C2.66263 23.7956 2.50513 23.7355 2.38492 23.6153C2.14448 23.3749 2.14448 22.9851 2.38492 22.7447L6.09531 19.0343C6.33575 18.7938 6.72555 18.7938 6.96589 19.0343C7.20632 19.2747 7.20632 19.6645 6.96589 19.905L3.25556 23.6153C3.13537 23.7355 2.97775 23.7956 2.82025 23.7956Z" fill="#F8C844"/>
<path d="M6.2309 24.5915C6.07331 24.5915 5.91578 24.5314 5.79556 24.4112C5.55513 24.1708 5.55513 23.7809 5.79556 23.5406L9.35538 19.9807C9.59575 19.7404 9.98562 19.7403 10.226 19.9807C10.4664 20.2211 10.4664 20.611 10.226 20.8514L6.66624 24.4112C6.54602 24.5314 6.38849 24.5915 6.2309 24.5915Z" fill="#F8C844"/>
<path d="M24.4112 1.58895C24.2714 1.4492 24.0729 1.38491 23.8781 1.41634C23.8065 1.42794 22.1002 1.70819 19.775 2.59661C18.4108 3.11771 17.1148 3.74181 15.9228 4.45158C14.459 5.32303 13.1487 6.32751 12.026 7.43738L7.37676 8.34251C7.25673 8.36584 7.14646 8.42454 7.05978 8.51076L2.84759 12.7094C2.65561 12.9007 2.61141 13.1949 2.73839 13.4342C2.84661 13.638 3.05747 13.7611 3.28195 13.7611C3.32102 13.7611 3.36044 13.7574 3.39986 13.7499L8.15087 12.8248C7.8416 13.4316 7.55226 14.0616 7.28368 14.7145C7.1893 14.9443 7.24211 15.2083 7.41774 15.3841L8.5816 16.5479L7.50032 17.6292C7.25989 17.8696 7.25989 18.2594 7.50032 18.4998C7.62054 18.62 7.77803 18.6801 7.93572 18.6801C8.09325 18.6801 8.25075 18.62 8.37096 18.4999L9.45224 17.4186L10.6161 18.5825C10.7339 18.7001 10.8913 18.7628 11.0516 18.7628C11.1303 18.7628 11.2099 18.7476 11.2856 18.7165C11.9385 18.448 12.5685 18.1586 13.1751 17.8494L12.2504 22.6005C12.1986 22.8664 12.3267 23.1349 12.5659 23.2619C12.6571 23.3103 12.7561 23.3338 12.8545 23.3338C13.0143 23.3338 13.1723 23.2715 13.2905 23.1527L17.4891 18.9406C17.5755 18.854 17.634 18.7436 17.6575 18.6236L18.5625 13.9743C19.6723 12.8516 20.6769 11.5414 21.5484 10.0776C22.2581 8.88536 22.8822 7.58942 23.4035 6.22536C24.2917 3.89996 24.5721 2.1938 24.5836 2.12224C24.615 1.92698 24.5507 1.7286 24.4112 1.58895ZM5.14778 12.155L7.79617 9.51524L10.6456 8.9605C10.0276 9.7207 9.45429 10.5411 8.92805 11.4191L5.14778 12.155ZM16.4846 18.2039L13.8449 20.8523L14.5808 17.072C15.459 16.5458 16.2792 15.9726 17.0394 15.3545L16.4846 18.2039ZM22.2417 5.81541C21.4644 7.84246 20.0313 10.7652 17.619 13.1777C16.5084 14.2881 15.2153 15.2752 13.755 16.1299C13.7289 16.1429 13.7035 16.1576 13.6796 16.1743C12.898 16.6274 12.0687 17.0429 11.1941 17.4191L10.3229 16.5478L12.0815 14.7894C12.3218 14.549 12.3218 14.1591 12.0815 13.9187C11.8411 13.6783 11.4512 13.6783 11.2108 13.9187L9.45227 15.6771L8.58108 14.8058C8.95736 13.9312 9.37281 13.1018 9.82609 12.32C9.8426 12.2962 9.85699 12.2712 9.86996 12.2454C10.7246 10.7849 11.7118 9.49161 12.8226 8.38086C15.2349 5.96855 18.1576 4.53549 20.1847 3.75822C21.4163 3.28577 22.4766 2.99119 23.1776 2.82232C23.0087 3.52338 22.7141 4.58372 22.2417 5.81541Z" fill="#F8C844"/>
</svg>
