<svg width="26" height="26" viewBox="0 0 26 26" fill="none" xmlns="http://www.w3.org/2000/svg">
<g clip-path="url(#clip0_35:456)">
<path d="M25.4875 11.5608C25.7202 11.3238 25.883 11.0271 25.9578 10.7035C26.0326 10.3798 26.0166 10.0418 25.9116 9.72673C25.8066 9.41161 25.6165 9.13162 25.3625 8.91762C25.1085 8.70362 24.8003 8.56392 24.4719 8.51392L17.9414 7.51658C17.8472 7.50196 17.758 7.46427 17.6818 7.40686C17.6056 7.34945 17.5448 7.2741 17.5047 7.18752L14.6244 1.03892C14.4794 0.730462 14.2496 0.469648 13.9618 0.286962C13.6741 0.104275 13.3402 0.00726318 12.9994 0.00726318C12.6585 0.00726318 12.3247 0.104275 12.037 0.286962C11.7492 0.469648 11.5194 0.730462 11.3744 1.03892L8.49408 7.19158C8.45352 7.27741 8.39247 7.35194 8.31631 7.40862C8.24015 7.46529 8.15123 7.50237 8.05737 7.51658L1.5269 8.52205C1.19852 8.57204 0.89032 8.71174 0.636282 8.92574C0.382243 9.13974 0.192231 9.41974 0.0871916 9.73485C-0.0178476 10.05 -0.0338335 10.388 0.0409961 10.7116C0.115826 11.0352 0.278565 11.3319 0.511271 11.5689L5.31112 16.5049C5.3746 16.5705 5.42197 16.65 5.44946 16.737C5.47696 16.8241 5.48384 16.9164 5.46955 17.0066L4.34627 23.9128C4.29151 24.2457 4.3315 24.5872 4.46167 24.8984C4.59184 25.2096 4.80694 25.4779 5.08238 25.6726C5.35782 25.8673 5.68249 25.9806 6.01928 25.9995C6.35607 26.0184 6.69138 25.9422 6.9869 25.7795L12.7171 22.6006C12.8024 22.5528 12.8985 22.5276 12.9963 22.5276C13.0942 22.5276 13.1903 22.5528 13.2756 22.6006L19.0058 25.7795C19.3013 25.9422 19.6366 26.0184 19.9734 25.9995C20.3102 25.9806 20.6349 25.8673 20.9103 25.6726C21.1858 25.4779 21.4009 25.2096 21.531 24.8984C21.6612 24.5872 21.7012 24.2457 21.6464 23.9128L20.5231 17.0066C20.5087 16.9164 20.5155 16.8241 20.543 16.737C20.5705 16.6499 20.618 16.5704 20.6816 16.5049L25.4875 11.5608ZM19.3288 17.1955L20.4521 24.1017C20.4714 24.2102 20.4591 24.3218 20.4166 24.4234C20.374 24.525 20.3032 24.6122 20.2124 24.6745C20.1247 24.738 20.0206 24.7748 19.9125 24.7806C19.8044 24.7864 19.6969 24.7608 19.603 24.707L13.8708 21.5322C13.6048 21.3835 13.3052 21.3054 13.0004 21.3054C12.6957 21.3054 12.396 21.3835 12.13 21.5322L6.39987 24.707C6.30585 24.7606 6.19844 24.786 6.09041 24.7802C5.98238 24.7744 5.87828 24.7378 5.79049 24.6745C5.6997 24.6122 5.62881 24.525 5.5863 24.4234C5.54379 24.3218 5.53146 24.2102 5.5508 24.1017L6.67408 17.1955C6.71947 16.9162 6.69883 16.6302 6.61382 16.3604C6.52881 16.0906 6.3818 15.8444 6.18455 15.6416L1.38471 10.7117C1.30897 10.635 1.25626 10.5385 1.23257 10.4333C1.20887 10.3281 1.21513 10.2184 1.25065 10.1166C1.28292 10.0147 1.34333 9.92405 1.42492 9.85504C1.5065 9.78604 1.60593 9.7415 1.71174 9.72658L8.24221 8.72517C8.53415 8.68037 8.81053 8.56424 9.04686 8.38708C9.28319 8.20993 9.47217 7.97721 9.59705 7.70955L12.4753 1.55486C12.5214 1.45465 12.5953 1.36976 12.6882 1.31025C12.7811 1.25074 12.8891 1.21911 12.9994 1.21911C13.1097 1.21911 13.2177 1.25074 13.3106 1.31025C13.4035 1.36976 13.4773 1.45465 13.5235 1.55486L16.4017 7.70955C16.5268 7.97746 16.7161 8.21035 16.9528 8.38752C17.1895 8.5647 17.4663 8.68068 17.7586 8.72517L24.2891 9.72658C24.3949 9.7415 24.4943 9.78604 24.5759 9.85504C24.6575 9.92405 24.7179 10.0147 24.7502 10.1166C24.7857 10.2184 24.792 10.3281 24.7683 10.4333C24.7446 10.5385 24.6919 10.635 24.6161 10.7117L19.8142 15.6416C19.6177 15.8448 19.4715 16.0911 19.3872 16.3609C19.3029 16.6308 19.2829 16.9166 19.3288 17.1955Z" fill="#F8C844"/>
</g>
<defs>
<clipPath id="clip0_35:456">
<rect width="26" height="26" fill="white"/>
</clipPath>
</defs>
</svg>
