<svg width="30" height="29" viewBox="0 0 30 29" fill="none" xmlns="http://www.w3.org/2000/svg">
<path d="M30 14.3125C30 12.3125 28.4375 11.25 26.25 11.25H19.9375C20.375 9.5625 20.625 7.9375 20.625 6.5625C20.625 1.125 19.125 0 17.8125 0C16.9375 0 16.3125 0.0625 15.4375 0.625C15.1875 0.75 15.0625 1 15 1.25L14.0625 6.3125C13.0625 9 10.5 11.3125 8.4375 12.875V26.25C9.125 26.25 10 26.625 10.8125 27.0625C11.8125 27.5625 12.875 28.0625 14.0625 28.0625H23C24.875 28.0625 26.25 26.5625 26.25 25.25C26.25 25 26.25 24.75 26.1875 24.5625C27.375 24.125 28.125 23.125 28.125 22C28.125 21.4375 28 20.9375 27.8125 20.5625C28.5 20.0625 29.25 19.25 29.25 18.25C29.25 17.75 29 17.125 28.625 16.6875C29.4375 16.0625 30 15.1875 30 14.3125ZM28.0625 14.3125C28.0625 15.5 26.8125 15.625 26.625 16.1875C26.4375 16.8125 27.375 17.0625 27.375 18.1875C27.375 19.375 25.9375 19.375 25.75 19.9375C25.5 20.625 26.1875 20.875 26.1875 22C26.1875 22.0625 26.1875 22.125 26.1875 22.1875C26 23.125 24.5625 23.1875 24.3125 23.5625C24.0625 24 24.375 24.25 24.375 25.25C24.375 25.8125 23.75 26.1875 23 26.1875H14.0625C13.375 26.1875 12.5 25.8125 11.6875 25.375C10.9375 25 10.1875 24.625 9.375 24.4375V14.5C11.6875 12.75 14.6875 10.0625 15.875 6.8125C15.875 6.75 15.875 6.68751 15.9375 6.68751L16.8125 2.00001C17.125 1.87501 17.375 1.875 17.875 1.875C18.0625 1.875 18.8125 3 18.8125 6.5625C18.8125 7.9375 18.5625 9.5 18.0625 11.25H17.8125C17.3125 11.25 16.875 11.6875 16.875 12.1875C16.875 12.6875 17.3125 13.125 17.8125 13.125H26.25C27.1875 13.125 28.0625 13.5625 28.0625 14.3125Z" fill="white"/>
<path d="M7.5 28.125H1.875C0.8125 28.125 0 27.3125 0 26.25V13.125C0 12.0625 0.8125 11.25 1.875 11.25H7.5C8.5625 11.25 9.375 12.0625 9.375 13.125V26.25C9.375 27.3125 8.5625 28.125 7.5 28.125ZM1.875 13.125V26.25H7.5V13.125H1.875Z" fill="white"/>
</svg>
