<svg width="30" height="30" viewBox="0 0 30 30" fill="none" xmlns="http://www.w3.org/2000/svg">
<path fill-rule="evenodd" clip-rule="evenodd" d="M29.375 25C29.375 26.7263 27.9763 28.125 26.25 28.125H3.75C2.02375 28.125 0.625 26.7263 0.625 25V6.87503C0.625 5.4944 1.74437 4.37503 3.125 4.37503H15.7319L20.7938 2.54128C21.1144 2.4244 21.4694 2.59003 21.5863 2.9094L22.1194 4.37503H24.375C25.7556 4.37503 26.875 5.4944 26.875 6.87503V8.12503C28.2556 8.12503 29.375 9.2444 29.375 10.625V25ZM3.125 5.62503C2.435 5.62503 1.875 6.18503 1.875 6.87503C1.875 7.56503 2.435 8.12503 3.125 8.12503H5.27813H5.39625C5.40438 8.1219 5.40938 8.11503 5.4175 8.1119L12.2813 5.62503H3.125ZM21.2988 5.73815L20.635 3.91065H20.6344L19.3525 4.37503H19.3544L15.9081 5.62503H15.9019L9.0025 8.12503H22.1663L21.2988 5.73815ZM25.625 6.87503C25.625 6.18503 25.065 5.62503 24.375 5.62503H22.5731L23.4819 8.12503H25.625V6.87503ZM26.875 9.37503H3.125C2.6675 9.37503 2.24375 9.24315 1.875 9.02815V25C1.875 26.0357 2.715 26.875 3.75 26.875H26.25C27.2856 26.875 28.125 26.0357 28.125 25V20.625H25.625C24.2444 20.625 23.125 19.5057 23.125 18.125C23.125 16.7444 24.2444 15.625 25.625 15.625H28.125V10.625C28.125 9.93503 27.565 9.37503 26.875 9.37503ZM28.125 19.375V16.875H25.625C24.935 16.875 24.375 17.435 24.375 18.125C24.375 18.815 24.935 19.375 25.625 19.375H28.125ZM25.625 17.5H26.875V18.75H25.625V17.5Z" fill="white"/>
</svg>
